<svg xmlns="http://www.w3.org/2000/svg" version="1.1" xmlns:xlink="http://www.w3.org/1999/xlink" xmlns:svgjs="http://svgjs.dev/svgjs" width="1500" height="1500" viewBox="0 0 1500 1500"><rect width="1500" height="1500" fill="#04325f"></rect><g transform="matrix(0.6666666666666666,0,0,0.6666666666666666,249.39393939393938,438.58569500674764)"><svg viewBox="0 0 396 247" data-background-color="#04325f" preserveAspectRatio="xMidYMid meet" height="935" width="1500" xmlns="http://www.w3.org/2000/svg" xmlns:xlink="http://www.w3.org/1999/xlink"><g id="tight-bounds" transform="matrix(1,0,0,1,0.2400000000000091,-0.09999999999999432)"><svg viewBox="0 0 395.52 247.2" height="247.2" width="395.52"><g><svg></svg></g><g><svg viewBox="0 0 395.52 247.2" height="247.2" width="395.52"><g transform="matrix(1,0,0,1,75.54432,59.4853047518108)"><svg viewBox="0 0 244.43135999999998 128.2293904963784" height="128.2293904963784" width="244.43135999999998"><g><svg viewBox="0 0 244.43135999999998 128.2293904963784" height="128.2293904963784" width="244.43135999999998"><g><svg viewBox="0 0 244.43135999999998 128.2293904963784" height="128.2293904963784" width="244.43135999999998"><g><svg viewBox="0 0 244.43135999999998 128.2293904963784" height="128.2293904963784" width="244.43135999999998"><g id="textblocktransform"><svg viewBox="0 0 244.43135999999998 128.2293904963784" height="128.2293904963784" width="244.43135999999998" id="textblock"><g><svg viewBox="0 0 244.43135999999998 71.15905676855894" height="71.15905676855894" width="244.43135999999998"><g transform="matrix(1,0,0,1,0,0)"><svg width="244.43135999999998" viewBox="10.8 -41.65 206.07999999999998 60" height="71.15905676855894" data-palette-color="#ffd700"><path d="M14.95-30.3L14.95-30.3Q12.95-30.3 11.88-31.43 10.8-32.55 10.8-34.15L10.8-34.15Q10.8-34.55 10.93-35.1 11.05-35.65 11.25-36.05L11.25-36.05Q11.9-35.75 13.18-35.63 14.45-35.5 16.15-35.5L16.15-35.5Q18.7-35.5 21.93-35.73 25.15-35.95 28.1-36.2 31.05-36.45 33.3-36.68 35.55-36.9 36.2-36.9L36.2-36.9Q38.05-36.9 38.88-35.52 39.7-34.15 40.1-31.85L40.1-31.85Q38.8-31.95 37.52-32.02 36.25-32.1 35.35-32.1L35.35-32.1Q33.75-32.1 32.13-32 30.5-31.9 28.85-31.7L28.85-31.7Q28.15-30.25 27.3-28.28 26.45-26.3 25.63-24.15 24.8-22 24.05-19.88 23.3-17.75 22.75-16.05L22.75-16.05Q21.65-12.75 20.83-9.95 20-7.15 19.38-4.73 18.75-2.3 18.3-0.1 17.85 2.1 17.5 4.2L17.5 4.2Q14.15 3.7 11.9 0L11.9 0Q12.3-1.55 12.88-3.38 13.45-5.2 14.23-7.53 15-9.85 16.05-12.8 17.1-15.75 18.45-19.5L18.45-19.5Q18.95-20.9 19.5-22.43 20.05-23.95 20.58-25.45 21.1-26.95 21.53-28.35 21.95-29.75 22.25-30.9L22.25-30.9Q20.15-30.65 18.28-30.48 16.4-30.3 14.95-30.3ZM46.5-20.7L46.5-20.7Q46.3-17.6 45.4-15.38 44.5-13.15 42.82-11.48 41.15-9.8 38.75-8.45 36.35-7.1 33.15-5.85L33.15-5.85Q33.15-5.55 33.12-5.23 33.1-4.9 33.1-4.55L33.1-4.55Q33.1-3.9 33.2-3.2 33.3-2.5 33.55-1.9 33.8-1.3 34.25-0.93 34.7-0.55 35.4-0.55L35.4-0.55Q36.75-0.55 38.05-1.15 39.35-1.75 40.52-2.63 41.7-3.5 42.72-4.53 43.75-5.55 44.55-6.4L44.55-6.4Q45.05-5.95 45.4-5.55L45.4-5.55Q43.15-2.55 40.47-0.58 37.8 1.4 35.4 1.95L35.4 1.95Q31.95 1.55 30.02-0.58 28.1-2.7 28.1-5.7L28.1-5.7Q28.1-7.75 28.67-9.88 29.25-12 30.27-13.98 31.3-15.95 32.67-17.7 34.05-19.45 35.62-20.75 37.2-22.05 38.87-22.8 40.55-23.55 42.2-23.55L42.2-23.55Q44.5-23.25 46.5-20.7ZM43.05-19.05L43.05-19.05Q41.7-18.85 40.25-17.95 38.8-17.05 37.52-15.55 36.25-14.05 35.2-12.05 34.15-10.05 33.55-7.75L33.55-7.75Q37.55-9.75 40.2-12.68 42.85-15.6 43.05-19.05ZM66.05-19.9L66.05-19.9Q66-18.95 65.72-17.93 65.45-16.9 65.05-16.07 64.65-15.25 64.2-14.7 63.75-14.15 63.35-14.15L63.35-14.15Q62.8-14.2 62.7-14.9L62.7-14.9Q62.7-15.05 62.82-15.38 62.95-15.7 63.1-16.1 63.25-16.5 63.37-16.9 63.5-17.3 63.5-17.6L63.5-17.6Q63.5-18.3 63.17-18.78 62.85-19.25 62.3-19.25L62.3-19.25Q60.3-19.25 59.25-16.75 58.2-14.25 58.2-9.4L58.2-9.4Q58.2-8.9 58.25-8.8L58.25-8.8Q59.3-8.85 60.12-8.88 60.95-8.9 61.75-8.9L61.75-8.9Q61.8-8.8 61.8-8.5L61.8-8.5Q61.8-8.05 61.6-7.85L61.6-7.85Q60.45-7.6 59.77-7.43 59.1-7.25 58.75-7.1 58.4-6.95 58.32-6.78 58.25-6.6 58.25-6.3L58.25-6.3Q58.25-5.9 58.27-5.5 58.3-5.1 58.3-4.5L58.3-4.5Q58.3-0.3 56.02 2.25 53.75 4.8 49.7 5.2L49.7 5.2Q49 5.15 48.25 4.8 47.5 4.45 46.82 3.9 46.15 3.35 45.65 2.68 45.15 2 44.95 1.3L44.95 1.3Q44.95-0.6 45.75-2.33 46.55-4.05 47.92-5.38 49.3-6.7 51.17-7.53 53.05-8.35 55.25-8.5L55.25-8.5Q55.25-9.75 55-10.95 54.75-12.15 54.47-13.28 54.2-14.4 53.95-15.48 53.7-16.55 53.7-17.6L53.7-17.6Q53.7-18.95 54.25-20.28 54.8-21.6 55.7-22.73 56.6-23.85 57.8-24.65 59-25.45 60.3-25.75L60.3-25.75Q60.85-25.6 61.77-24.88 62.7-24.15 63.6-23.25 64.5-22.35 65.2-21.43 65.9-20.5 66.05-19.9ZM49.55 2.9L49.55 2.9Q50.75 2.4 51.82 1.45 52.9 0.5 53.7-0.7 54.5-1.9 54.97-3.25 55.45-4.6 55.45-5.9L55.45-5.9Q54.45-5.75 53.25-4.98 52.05-4.2 51-3.13 49.95-2.05 49.25-0.9 48.55 0.25 48.55 1.1L48.55 1.1Q48.55 2.2 49.55 2.9ZM83.34-19.9L83.34-19.9Q83.29-18.95 83.02-17.93 82.74-16.9 82.34-16.07 81.94-15.25 81.49-14.7 81.04-14.15 80.64-14.15L80.64-14.15Q80.09-14.2 79.99-14.9L79.99-14.9Q79.99-15.05 80.12-15.38 80.24-15.7 80.39-16.1 80.54-16.5 80.67-16.9 80.79-17.3 80.79-17.6L80.79-17.6Q80.79-18.3 80.47-18.78 80.14-19.25 79.59-19.25L79.59-19.25Q77.59-19.25 76.54-16.75 75.49-14.25 75.49-9.4L75.49-9.4Q75.49-8.9 75.54-8.8L75.54-8.8Q76.59-8.85 77.42-8.88 78.24-8.9 79.04-8.9L79.04-8.9Q79.09-8.8 79.09-8.5L79.09-8.5Q79.09-8.05 78.89-7.85L78.89-7.85Q77.74-7.6 77.07-7.43 76.39-7.25 76.04-7.1 75.69-6.95 75.62-6.78 75.54-6.6 75.54-6.3L75.54-6.3Q75.54-5.9 75.57-5.5 75.59-5.1 75.59-4.5L75.59-4.5Q75.59-0.3 73.32 2.25 71.04 4.8 66.99 5.2L66.99 5.2Q66.29 5.15 65.54 4.8 64.79 4.45 64.12 3.9 63.44 3.35 62.94 2.68 62.44 2 62.24 1.3L62.24 1.3Q62.24-0.6 63.04-2.33 63.84-4.05 65.22-5.38 66.59-6.7 68.47-7.53 70.34-8.35 72.54-8.5L72.54-8.5Q72.54-9.75 72.29-10.95 72.04-12.15 71.77-13.28 71.49-14.4 71.24-15.48 70.99-16.55 70.99-17.6L70.99-17.6Q70.99-18.95 71.54-20.28 72.09-21.6 72.99-22.73 73.89-23.85 75.09-24.65 76.29-25.45 77.59-25.75L77.59-25.75Q78.14-25.6 79.07-24.88 79.99-24.15 80.89-23.25 81.79-22.35 82.49-21.43 83.19-20.5 83.34-19.9ZM66.84 2.9L66.84 2.9Q68.04 2.4 69.12 1.45 70.19 0.5 70.99-0.7 71.79-1.9 72.27-3.25 72.74-4.6 72.74-5.9L72.74-5.9Q71.74-5.75 70.54-4.98 69.34-4.2 68.29-3.13 67.24-2.05 66.54-0.9 65.84 0.25 65.84 1.1L65.84 1.1Q65.84 2.2 66.84 2.9ZM83.69-8.8L83.69-8.8Q83.69-11.65 84.87-14.33 86.04-17 87.97-19.07 89.89-21.15 92.37-22.43 94.84-23.7 97.49-23.7L97.49-23.7Q100.09-23.7 101.49-22.4 102.89-21.1 102.89-18.7L102.89-18.7Q102.89-17.55 102.57-16.48 102.24-15.4 101.72-14.55 101.19-13.7 100.49-13.18 99.79-12.65 99.09-12.65L99.09-12.65Q98.49-12.65 97.87-13.03 97.24-13.4 96.84-14L96.84-14Q100.19-17.05 100.19-19.55L100.19-19.55Q100.19-21 99.04-21L99.04-21Q98.04-21 96.54-20.05 95.04-19.1 93.64-17.55L93.64-17.55Q91.49-15.15 90.37-12.23 89.24-9.3 89.24-6.1L89.24-6.1Q89.24-2.05 91.04-1.25L91.04-1.25Q91.79-1.35 92.79-1.7 93.79-2.05 94.94-2.63 96.09-3.2 97.32-3.95 98.54-4.7 99.69-5.55L99.69-5.55Q99.89-5.4 100.04-5.1 100.19-4.8 100.19-4.55L100.19-4.55Q99.34-3.5 98.24-2.5 97.14-1.5 95.94-0.68 94.74 0.15 93.62 0.73 92.49 1.3 91.64 1.45L91.64 1.45Q89.99 1.3 88.54 0.43 87.09-0.45 86.02-1.85 84.94-3.25 84.32-5.05 83.69-6.85 83.69-8.8ZM110.29 1.75L110.29 1.75Q107.44 1.45 105.74-0.75 104.04-2.95 104.04-6.35L104.04-6.35Q104.04-8.35 104.64-10.5 105.24-12.65 106.34-14.68 107.44-16.7 108.94-18.5 110.44-20.3 112.19-21.6L112.19-21.6Q114.94-23.65 117.34-23.65L117.34-23.65Q118.94-22.8 120.49-20.1L120.49-20.1Q120.74-20.1 120.94-20.13 121.14-20.15 121.39-20.15L121.39-20.15Q124.04-20.15 124.04-15.45L124.04-15.45Q124.04-12.3 123.01-9.47 121.99-6.65 120.16-4.35 118.34-2.05 115.81-0.48 113.29 1.1 110.29 1.75ZM112.84-14L112.84-14Q111.99-12.85 111.24-11.5 110.49-10.15 109.94-8.78 109.39-7.4 109.09-6.13 108.79-4.85 108.79-3.85L108.79-3.85Q108.79-2.65 109.19-1.55 109.59-0.45 110.09-0.3L110.09-0.3Q112.34-0.8 114.21-2.18 116.09-3.55 117.46-5.6 118.84-7.65 119.61-10.25 120.39-12.85 120.39-15.8L120.39-15.8Q120.39-17.1 120.24-17.85 120.09-18.6 119.74-19.15L119.74-19.15Q117.54-18.5 115.81-17.05 114.09-15.6 112.84-14ZM142.93 0.35L142.93 0.35Q145.23-1.2 147.43-3.63 149.63-6.05 151.43-8.88 153.23-11.7 154.48-14.75 155.73-17.8 156.18-20.6L156.18-20.6Q156.18-21.2 155.53-21.4L155.53-21.4Q154.83-21.4 153.61-20.18 152.38-18.95 150.91-17.05 149.43-15.15 147.91-12.8 146.38-10.45 145.13-8.13 143.88-5.8 143.01-3.78 142.13-1.75 142.03-0.5L142.03-0.5Q141.53-0.5 141.18-1.5L141.18-1.5Q141.08-1.75 140.83-2.02 140.58-2.3 140.03-2.7L140.03-2.7Q139.78-2.9 139.53-3.18 139.28-3.45 139.18-3.65L139.18-3.65Q138.98-4.05 138.98-4.95L138.98-4.95Q138.98-7.9 139.73-11.6 140.48-15.3 141.71-19.15 142.93-23 144.58-26.73 146.23-30.45 148.01-33.55 149.78-36.65 151.58-38.8 153.38-40.95 154.98-41.65L154.98-41.65Q155.48-41.5 156.18-41.15 156.88-40.8 157.58-40.35 158.28-39.9 158.91-39.45 159.53-39 159.83-38.65L159.83-38.65Q154.33-34.2 150.31-27.23 146.28-20.25 143.73-10.75L143.73-10.75Q145.13-13.35 146.88-15.78 148.63-18.2 150.36-20.05 152.08-21.9 153.66-23 155.23-24.1 156.28-24.1L156.28-24.1Q157.08-23.9 157.83-23.4 158.58-22.9 159.18-22.18 159.78-21.45 160.18-20.63 160.58-19.8 160.68-18.9L160.68-18.9Q160.63-16.8 159.96-14.43 159.28-12.05 158.16-9.75 157.03-7.45 155.61-5.35 154.18-3.25 152.61-1.68 151.03-0.1 149.46 0.85 147.88 1.8 146.48 1.8L146.48 1.8Q145.88 1.8 145.26 1.68 144.63 1.55 144.11 1.33 143.58 1.1 143.26 0.85 142.93 0.6 142.93 0.35ZM161.88-3.2L161.88-3.2Q161.88-5.4 162.93-9.38 163.98-13.35 165.88-18.65L165.88-18.65Q168.98-27.1 171.71-32.73 174.43-38.35 177.03-41.5L177.03-41.5Q177.63-41.4 178.51-41 179.38-40.6 180.23-40.13 181.08-39.65 181.76-39.15 182.43-38.65 182.63-38.35L182.63-38.35Q178.73-33.75 175.78-28.45 172.83-23.15 170.38-16.3L170.38-16.3Q168.28-10.4 167.18-5.68 166.08-0.95 166.08 2.2L166.08 2.2Q166.08 3.05 166.08 3.25 166.08 3.45 166.13 3.65L166.13 3.65Q165.43 3.55 164.93 3.3 164.43 3.05 164.28 2.7L164.28 2.7Q164.18 2.45 163.73 1.98 163.28 1.5 162.93 1.25L162.93 1.25Q162.48 0.95 162.18-0.33 161.88-1.6 161.88-3.2ZM179.43 1.75L179.43 1.75Q176.58 1.45 174.88-0.75 173.18-2.95 173.18-6.35L173.18-6.35Q173.18-8.35 173.78-10.5 174.38-12.65 175.48-14.68 176.58-16.7 178.08-18.5 179.58-20.3 181.33-21.6L181.33-21.6Q184.08-23.65 186.48-23.65L186.48-23.65Q188.08-22.8 189.63-20.1L189.63-20.1Q189.88-20.1 190.08-20.13 190.28-20.15 190.53-20.15L190.53-20.15Q193.18-20.15 193.18-15.45L193.18-15.45Q193.18-12.3 192.15-9.47 191.13-6.65 189.3-4.35 187.48-2.05 184.95-0.48 182.43 1.1 179.43 1.75ZM181.98-14L181.98-14Q181.13-12.85 180.38-11.5 179.63-10.15 179.08-8.78 178.53-7.4 178.23-6.13 177.93-4.85 177.93-3.85L177.93-3.85Q177.93-2.65 178.33-1.55 178.73-0.45 179.23-0.3L179.23-0.3Q181.48-0.8 183.35-2.18 185.23-3.55 186.6-5.6 187.98-7.65 188.75-10.25 189.53-12.85 189.53-15.8L189.53-15.8Q189.53-17.1 189.38-17.85 189.23-18.6 188.88-19.15L188.88-19.15Q186.68-18.5 184.95-17.05 183.23-15.6 181.98-14ZM185.48 14.9L185.48 14.9Q185.48 14.6 185.68 14.35 185.88 14.1 186.13 13.85L186.13 13.85Q186.73 14.4 187.15 14.7 187.58 15 187.95 15.2 188.33 15.4 188.73 15.45 189.13 15.5 189.68 15.5L189.68 15.5Q192.28 15.5 194.63 14.13 196.98 12.75 199.05 10.15 201.13 7.55 202.83 3.8 204.53 0.05 205.83-4.7L205.83-4.7Q205.23-4.1 204.35-3.38 203.48-2.65 202.53-2 201.58-1.35 200.65-0.8 199.73-0.25 199.08 0L199.08 0Q198.23-0.15 197.5-0.73 196.78-1.3 196.23-2.15 195.68-3 195.38-4.08 195.08-5.15 195.08-6.35L195.08-6.35Q195.08-8.3 195.8-10.35 196.53-12.4 197.73-14.38 198.93-16.35 200.55-18.1 202.18-19.85 204-21.15 205.83-22.45 207.7-23.23 209.58-24 211.38-24L211.38-24Q213.13-24 214-23.28 214.88-22.55 215.28-20.8L215.28-20.8Q214.73-21.1 213.88-21.1L213.88-21.1Q212.68-21.1 211.1-20.15 209.53-19.2 207.9-17.68 206.28-16.15 204.68-14.18 203.08-12.2 201.85-10.15 200.63-8.1 199.85-6.15 199.08-4.2 199.08-2.65L199.08-2.65Q199.08-2.3 199.13-2.23 199.18-2.15 199.28-2.15L199.28-2.15Q199.73-2.15 200.5-2.65 201.28-3.15 202.25-3.93 203.23-4.7 204.28-5.73 205.33-6.75 206.28-7.8L206.28-7.8Q208.43-10.2 210.2-13.18 211.98-16.15 213.03-18.95L213.03-18.95Q214.38-18.85 215.43-18.5 216.48-18.15 216.88-17.75L216.88-17.75Q215.18-13.85 214.15-11.2 213.13-8.55 212.38-6.5L212.38-6.5Q211.03-2.9 209.85 0.08 208.68 3.05 207.45 5.58 206.23 8.1 204.8 10.28 203.38 12.45 201.58 14.45L201.58 14.45Q200.73 15.4 199.65 16.13 198.58 16.85 197.45 17.35 196.33 17.85 195.25 18.1 194.18 18.35 193.28 18.35L193.28 18.35Q192.08 18.35 190.83 18.07 189.58 17.8 188.5 17.32 187.43 16.85 186.63 16.23 185.83 15.6 185.48 14.9Z" opacity="1" transform="matrix(1,0,0,1,0,0)" fill="#ffd700" class="wordmark-text-0" data-fill-palette-color="primary" id="text-0"></path></svg></g></svg></g><g transform="matrix(1,0,0,1,0,87.95800225425326)"><svg viewBox="0 0 244.43135999999998 40.27138824212512" height="40.27138824212512" width="244.43135999999998"><g transform="matrix(1,0,0,1,0,0)"><svg width="244.43135999999998" viewBox="-7.35 -34.25 344.40000000000003 56.75" height="40.27138824212512" data-palette-color="#ffffff"><path d="M17.65-10.2L17.65-10.2Q28.8-10.75 29.3-10.75 29.8-10.75 29.8-10.6L29.8-10.6Q29.8-10.2 28.75-9.95L28.75-9.95Q22.1-9.95 17.1-9.05L17.1-9.05Q13.45-2.3 8.45 3.05L8.45 3.05Q9.35 3.3 10.43 3.5 11.5 3.7 11.5 3.85L11.5 3.85Q11.5 4.1 10.75 4.1 10 4.1 8.05 3.45L8.05 3.45Q0.9 10.95-4.85 10.95L-4.85 10.95Q-7.35 10.95-7.35 9.25L-7.35 9.25Q-7.35 8.25-6.95 7.95L-6.95 7.95-6.95 8.45Q-6.95 10.3-4.85 10.3L-4.85 10.3Q0.3 10.3 6.45 2.9L6.45 2.9Q5.3 2.4 4.7 2L4.7 2Q-0.05 7.95-3.6 7.95L-3.6 7.95Q-4.05 7.95-4.05 7.68-4.05 7.4-3.78 7.33-3.5 7.25-2.4 7.05L-2.4 7.05Q0.7 6.1 4.25 1.7L4.25 1.7Q1.8-0.1 1.8-2.35 1.8-4.6 5.2-6.7L5.2-6.7Q7.65-8.25 10.75-9.05L10.75-9.05Q15.7-19.9 16.1-29.5L16.1-29.5Q15.35-29.8 14.3-29.8L14.3-29.8Q10.7-29.8 6.75-26.8 2.8-23.8 2.8-20.58 2.8-17.35 7.1-15.15L7.1-15.15Q7.25-15.1 7.25-14.8 7.25-14.5 6.9-14.5L6.9-14.5 6.7-14.5Q4.5-15.4 2.73-17.1 0.95-18.8 0.95-20.85L0.95-20.85Q0.95-23.7 4.1-26.25L4.1-26.25Q6.6-28.4 9.38-29.3 12.15-30.2 14.6-30.2L14.6-30.2Q15.2-30.2 16.1-30.1L16.1-30.1 16.1-31.8Q16.1-32.2 16.4-32.2L16.4-32.2Q16.6-32.2 16.65-30L16.65-30Q21.75-28.95 21.75-23.1L21.75-23.1Q21.75-18.2 17.65-10.2ZM33.2 8.6L33.2 8.6Q27.55 8.6 27.55 2.15L27.55 2.15Q27.55-2.1 30.1-9.3L30.1-9.3 36.1-23.85 38.15-29Q38.6-30.15 38.93-30.15 39.25-30.15 39.25-29.7L39.25-29.7Q39.25-28.85 36.68-21.4 34.1-13.95 32.85-9.75L32.85-9.75Q30.75-2.25 30.75 2.05L30.75 2.05Q30.75 7.9 34.3 7.9L34.3 7.9Q35.75 7.9 37.35 6.8L37.35 6.8Q38.8 5.75 42.45 2.35L42.45 2.35 42.55 2.4Q42.55 2.5 42.4 2.75L42.4 2.75Q40.75 5.15 38.23 6.88 35.7 8.6 33.2 8.6ZM19.15-24.2L19.15-24.2Q19.15-28.05 16.65-29.25L16.65-29.25Q16.55-20.5 11.4-9.2L11.4-9.2Q13.35-9.7 14.65-9.85L14.65-9.85Q19.15-19.1 19.15-24.2ZM13.85-8.4L13.85-8.4Q11.05-7.55 10.45-7.3L10.45-7.3Q8-2.3 5.2 1.4L5.2 1.4Q5.85 2.05 6.85 2.4L6.85 2.4Q10.65-2.25 13.85-8.4ZM3.8-1.25L3.8-1.25Q3.8-0.05 4.8 1.05L4.8 1.05Q7.25-2.2 9.75-7L9.75-7Q3.8-4.3 3.8-1.25ZM48-9.8L48-9.8 48.15-10.75Q48.15-11.55 47.62-12.08 47.1-12.6 46.4-12.6L46.4-12.6Q45.8-6.5 43.45-3.25L43.45-3.25 45-3.25Q44.35-2.85 44.02-2.85 43.7-2.85 43.57-2.9 43.45-2.95 43.3-2.95L43.3-2.95Q43.35-2.9 43.02-2.63 42.7-2.35 41.15-1 39.6 0.35 38.25 0.35L38.25 0.35Q36.3 0.35 36.3-2.15L36.3-2.15Q36.3-5.2 38.6-8.4L38.6-8.4Q37.8-10.35 37.8-12.53 37.8-14.7 38.65-16.3L38.65-16.3Q40.3-19.45 42.75-19.45L42.75-19.45Q45.85-19.45 46.35-14.15L46.35-14.15Q48.85-14.05 48.85-11.55L48.85-11.55Q48.85-9.5 48.2-9.5L48.2-9.5Q48-9.5 48-9.8ZM42.8-18.35L42.8-18.35Q41.2-18.35 39.85-15.2L39.85-15.2Q39-13.3 39-11.55 39-9.8 39.15-8.95L39.15-8.95Q42.2-13.05 45.55-14.05L45.55-14.05Q44.55-18.35 42.8-18.35ZM45.6-12.65L45.6-12.65Q44.5-12.5 42.17-10.63 39.85-8.75 39.3-7.65L39.3-7.65Q40.35-3.85 41.85-3.5L41.85-3.5Q43.05-4.6 44.32-7.85 45.6-11.1 45.6-12.65ZM38.95-7.2L38.95-7.2Q37.3-4.4 37.3-2.78 37.3-1.15 38.4-1.15L38.4-1.15Q39.75-1.15 41.65-3.25L41.65-3.25Q40-3.45 38.95-7.2ZM51.95-9.25L51.95-9.25 51.6-12.95Q51.6-13.3 52-13.45L52-13.45 54.2-14.05Q54.95-15.75 56.7-15.75L56.7-15.75Q57.45-15.75 57.2-15.15L57.2-15.15 58.4-15.7Q58.5-15.7 58.5-15.55L58.5-15.55Q58.5-15.1 56.9-14.4L56.9-14.4Q55.55-11.3 52.15-2.25L52.15-2.25Q55.05-5.6 56.7-7.8L56.7-7.8Q58.2-10.55 60.4-13.65L60.4-13.65Q61-14.55 62.45-14.55 63.9-14.55 63.9-13.45L63.9-13.45Q63.9-13 62.62-9.83 61.35-6.65 61.35-6.45L61.35-6.45Q63.9-8.7 66.05-12.1L66.05-12.1Q66.25-12.45 66.42-12.45 66.59-12.45 66.59-12.2L66.59-12.2Q66.59-11.55 63.95-7.9L63.95-7.9Q60.9-3.85 60.67-3.55 60.45-3.25 60.02-3.25 59.6-3.25 59.6-3.6L59.6-3.6Q59.6-4.1 60.95-9.4L60.95-9.4Q61.35-11 61.35-12.6L61.35-12.6Q59.6-9.95 56.75-6.65L56.75-6.65 51.8-1Q51.65 0.35 50.5 0.35L50.5 0.35Q50.05 0.35 50.05-0.05L50.05-0.05 50.15-0.3Q50.05-0.4 50.6-1.73 51.15-3.05 51.55-5.28 51.95-7.5 51.95-9.25ZM75.05-1.55L75.05-1.55Q75.05-1.15 73.9-0.78 72.75-0.4 72.25-0.4L72.25-0.4Q69.5-0.4 67.95-4.05L67.95-4.05Q66.7-6.85 66.7-9.43 66.7-12 67.05-12.65 67.4-13.3 68.27-13.3 69.15-13.3 69.25-13.05L69.25-13.05Q69.15-13.05 69-12.03 68.84-11 68.84-9.05 68.84-7.1 69.7-4.7L69.7-4.7Q70.9-1.25 73.05-1.25L73.05-1.25Q73.5-1.25 74.05-1.48 74.59-1.7 74.82-1.7 75.05-1.7 75.05-1.55ZM53.85-13.2L53.85-13.2 52.5-12.75Q52.75-11.35 52.75-10.1L52.75-10.1Q53.15-11.35 53.85-13.2ZM89.44-6.8L89.44-6.8Q89.49-6.8 89.49-6.65 89.49-6.5 89.09-5.8L89.09-5.8Q87.54-3.3 84.59-1.18 81.64 0.95 79.04 0.95L79.04 0.95Q75.49 0.95 75.49-3.65L75.49-3.65Q75.49-5.2 75.84-6.95L75.84-6.95Q75.39-7.35 75.04-8.05L75.04-8.05Q75.09-8 75.29-7.93 75.49-7.85 75.67-7.78 75.84-7.7 76.04-7.65L76.04-7.65Q76.54-10.1 79.09-12.7 81.64-15.3 84.04-15.3L84.04-15.3Q84.59-15.3 84.59-15.18 84.59-15.05 83.89-14.65L83.89-14.65Q82.04-13.65 80.44-11.55L80.44-11.55Q78.74-9.45 77.99-7.35L77.99-7.35 78.09-7.25Q80.49-7.25 83.09-9.55 85.69-11.85 85.69-14.25L85.69-14.25Q85.69-14.95 85.32-15.58 84.94-16.2 84.09-16.2 83.24-16.2 81.97-15.43 80.69-14.65 80.57-14.65 80.44-14.65 80.44-14.7L80.44-14.7Q80.44-15.3 82.07-15.95 83.69-16.6 84.72-16.6 85.74-16.6 86.49-15.95 87.24-15.3 87.24-14.15L87.24-14.15Q87.24-11.5 83.97-9.15 80.69-6.8 77.79-6.55L77.79-6.55Q77.39-5.35 77.39-4.25L77.39-4.25Q77.39-0.1 80.39-0.1L80.39-0.1Q82.69-0.1 84.99-1.93 87.29-3.75 88.69-6.1L88.69-6.1Q89.14-6.8 89.44-6.8ZM100.69-13.65L100.69-13.65 101.64-13.6 102.64-13.6Q104.89-13.6 107.99-14.35L107.99-14.35Q113.69-24.85 120.59-30.8L120.59-30.8Q122.64-32.55 123.89-32.55L123.89-32.55Q125.49-32.55 125.49-30.13 125.49-27.7 124.09-25.7L124.09-25.7Q123.24-24.55 122.89-24.55 122.54-24.55 122.54-24.75 122.54-24.95 123.51-26.73 124.49-28.5 124.49-29.65 124.49-30.8 123.34-30.8L123.34-30.8Q121.54-30.8 118.34-27.18 115.14-23.55 113.54-20.9L113.54-20.9Q111.74-18.1 110.04-14.9L110.04-14.9 117.64-17.4Q117.84-17.4 117.84-17.3L117.84-17.3Q117.84-17 116.94-16.6L116.94-16.6Q113.44-15.15 109.59-14L109.59-14Q106.49-7.85 105.59-2.75L105.59-2.75Q105.59-2.7 105.14 1.15L105.14 1.15Q105.04 2 103.94 2 102.84 2 102.74 1.15L102.74 1.15Q103.14-2.8 103.14-4.05L103.14-4.05Q103.14-9.25 101.44-10.95L101.44-10.95 100.39-11.65Q99.84-12 99.84-12.7L99.84-12.7Q99.84-13.65 100.69-13.65ZM107.49-13.45L107.49-13.45Q105.49-12.95 101.99-12.4L101.99-12.4Q103.64-11.5 103.94-5.25L103.94-5.25Q105.24-9.2 107.49-13.45ZM124.09-9.8L124.09-9.8 124.24-10.75Q124.24-11.55 123.71-12.08 123.19-12.6 122.49-12.6L122.49-12.6Q121.89-6.5 119.54-3.25L119.54-3.25 121.09-3.25Q120.44-2.85 120.11-2.85 119.79-2.85 119.66-2.9 119.54-2.95 119.39-2.95L119.39-2.95Q119.44-2.9 119.11-2.63 118.79-2.35 117.24-1 115.69 0.35 114.34 0.35L114.34 0.35Q112.39 0.35 112.39-2.15L112.39-2.15Q112.39-5.2 114.69-8.4L114.69-8.4Q113.89-10.35 113.89-12.53 113.89-14.7 114.74-16.3L114.74-16.3Q116.39-19.45 118.84-19.45L118.84-19.45Q121.94-19.45 122.44-14.15L122.44-14.15Q124.94-14.05 124.94-11.55L124.94-11.55Q124.94-9.5 124.29-9.5L124.29-9.5Q124.09-9.5 124.09-9.8ZM118.89-18.35L118.89-18.35Q117.29-18.35 115.94-15.2L115.94-15.2Q115.09-13.3 115.09-11.55 115.09-9.8 115.24-8.95L115.24-8.95Q118.29-13.05 121.64-14.05L121.64-14.05Q120.64-18.35 118.89-18.35ZM121.69-12.65L121.69-12.65Q120.59-12.5 118.26-10.63 115.94-8.75 115.39-7.65L115.39-7.65Q116.44-3.85 117.94-3.5L117.94-3.5Q119.14-4.6 120.41-7.85 121.69-11.1 121.69-12.65ZM115.04-7.2L115.04-7.2Q113.39-4.4 113.39-2.78 113.39-1.15 114.49-1.15L114.49-1.15Q115.84-1.15 117.74-3.25L117.74-3.25Q116.09-3.45 115.04-7.2ZM139.48-11.5L139.48-11.5Q139.48-10.05 138.61-8.8 137.73-7.55 136.93-7.55L136.93-7.55Q136.78-7.55 136.78-7.75L136.78-7.75Q137.08-8.5 137.48-9.38 137.88-10.25 137.88-11.38 137.88-12.5 137.03-12.5L137.03-12.5Q135.88-12.5 133.41-9.73 130.93-6.95 129.93-5.2L129.93-5.2 127.78 0.55Q127.68 0.65 127.41 0.65 127.13 0.65 126.61 0.3 126.08-0.05 126.08-0.3L126.08-0.3Q126.18-0.5 126.36-0.95 126.53-1.4 126.68-1.65L126.68-1.65Q128.63-5.8 129.36-8.38 130.08-10.95 130.08-13.45L130.08-13.45Q129.88-12.65 128.28-9.9L128.28-9.9Q125.88-5.75 125.58-5.75 125.28-5.75 125.28-5.9L125.28-5.9Q125.28-6 127.36-9.35 129.43-12.7 130.18-15.6L130.18-15.6Q130.48-16.9 131.18-16.9L131.18-16.9Q131.98-16.9 131.98-14.9L131.98-14.9Q131.98-11.3 129.68-6.05L129.68-6.05Q132.38-9.4 133.43-10.55L133.43-10.55Q136.28-13.6 137.88-13.6 139.48-13.6 139.48-11.5ZM166.98-16.1L166.98-16.1Q166.98-15.25 158.53-12.85L158.53-12.85Q156.28-8.5 155.78-7.3L155.78-7.3Q154.48-4.2 154.48-1.35L154.48-1.35Q154.48 0.3 155.58 0.3L155.58 0.3Q156.93 0.3 159.13-1.6L159.13-1.6 161.38-3.55Q161.53-3.55 161.53-3.4 161.53-3.25 161.38-2.95L161.38-2.95Q160.58-1.75 158.68-0.28 156.78 1.2 155.68 1.2L155.68 1.2Q153.18 1.2 153.18-1.85L153.18-1.85Q153.18-4.05 154.28-7.3L154.28-7.3Q153.78-8.7 152.28-9.35L152.28-9.35Q151.83-9.55 150.93-9.9 150.03-10.25 149.48-10.5 148.93-10.75 148.93-11.53 148.93-12.3 149.63-12.45L149.63-12.45 150.98-12.45Q153.58-12.45 156.53-13.05L156.53-13.05 161.33-23.8Q161.68-24.7 163-24.7 164.33-24.7 164.33-24.2L164.33-24.2Q164.33-24.05 162.45-19.93 160.58-15.8 160.38-15.6L160.38-15.6 159.53-14.8 158.93-13.6Q160.13-13.95 166.23-16.1L166.23-16.1Q166.73-16.2 166.85-16.2 166.98-16.2 166.98-16.1ZM156.18-12.2L156.18-12.2Q153.38-11.55 151.13-11.2L151.13-11.2Q153.73-9.85 154.48-8L154.48-8Q154.98-9.4 156.18-12.2ZM176.23-11.5L176.23-11.5Q176.23-10.05 175.35-8.8 174.48-7.55 173.68-7.55L173.68-7.55Q173.53-7.55 173.53-7.75L173.53-7.75Q173.83-8.5 174.23-9.38 174.63-10.25 174.63-11.38 174.63-12.5 173.78-12.5L173.78-12.5Q172.63-12.5 170.15-9.73 167.68-6.95 166.68-5.2L166.68-5.2 164.53 0.55Q164.43 0.65 164.15 0.65 163.88 0.65 163.35 0.3 162.83-0.05 162.83-0.3L162.83-0.3Q162.93-0.5 163.1-0.95 163.28-1.4 163.43-1.65L163.43-1.65Q165.38-5.8 166.1-8.38 166.83-10.95 166.83-13.45L166.83-13.45Q166.63-12.65 165.03-9.9L165.03-9.9Q162.63-5.75 162.33-5.75 162.03-5.75 162.03-5.9L162.03-5.9Q162.03-6 164.1-9.35 166.18-12.7 166.93-15.6L166.93-15.6Q167.23-16.9 167.93-16.9L167.93-16.9Q168.73-16.9 168.73-14.9L168.73-14.9Q168.73-11.3 166.43-6.05L166.43-6.05Q169.13-9.4 170.18-10.55L170.18-10.55Q173.03-13.6 174.63-13.6 176.23-13.6 176.23-11.5ZM191.42-6.8L191.42-6.8Q191.47-6.8 191.47-6.65 191.47-6.5 191.07-5.8L191.07-5.8Q189.52-3.3 186.57-1.18 183.62 0.95 181.02 0.95L181.02 0.95Q177.47 0.95 177.47-3.65L177.47-3.65Q177.47-5.2 177.82-6.95L177.82-6.95Q177.37-7.35 177.02-8.05L177.02-8.05Q177.07-8 177.27-7.93 177.47-7.85 177.65-7.78 177.82-7.7 178.02-7.65L178.02-7.65Q178.52-10.1 181.07-12.7 183.62-15.3 186.02-15.3L186.02-15.3Q186.57-15.3 186.57-15.18 186.57-15.05 185.87-14.65L185.87-14.65Q184.02-13.65 182.42-11.55L182.42-11.55Q180.72-9.45 179.97-7.35L179.97-7.35 180.07-7.25Q182.47-7.25 185.07-9.55 187.67-11.85 187.67-14.25L187.67-14.25Q187.67-14.95 187.3-15.58 186.92-16.2 186.07-16.2 185.22-16.2 183.95-15.43 182.67-14.65 182.55-14.65 182.42-14.65 182.42-14.7L182.42-14.7Q182.42-15.3 184.05-15.95 185.67-16.6 186.7-16.6 187.72-16.6 188.47-15.95 189.22-15.3 189.22-14.15L189.22-14.15Q189.22-11.5 185.95-9.15 182.67-6.8 179.77-6.55L179.77-6.55Q179.37-5.35 179.37-4.25L179.37-4.25Q179.37-0.1 182.37-0.1L182.37-0.1Q184.67-0.1 186.97-1.93 189.27-3.75 190.67-6.1L190.67-6.1Q191.12-6.8 191.42-6.8ZM190.27 0.4L190.27 0.3 193.07-12.35Q192.87-13.05 191.97-15.05L191.97-15.05Q191.97-15.4 192.82-15.7L192.82-15.7Q195.32-16.65 196.05-16.65 196.77-16.65 196.77-16.2L196.77-16.2Q194.92-11.6 194.22-9.8L194.22-9.8Q194.22-9.65 194.22-9.5L194.22-9.5Q194.22-7.95 193.77-7.95L193.77-7.95Q193.67-7.95 193.62-8.1L193.62-8.1Q192.57-4.95 192.17-3.5L192.17-3.5Q194.47-7.25 196.87-10.05L196.87-10.05Q200.62-14.4 203.07-14.4L203.07-14.4Q204.22-14.4 204.22-13.5L204.22-13.5Q204.22-13.15 201.32-2.5L201.32-2.5Q204.22-4.65 205.82-7.1L205.82-7.1Q206.07-7.4 206.2-7.4 206.32-7.4 206.32-7.25 206.32-7.1 206.17-6.85L206.17-6.85Q203.97-2.95 200.82-0.65L200.82-0.65Q200.57-0.35 200.2-0.35 199.82-0.35 199.82-0.8 199.82-1.25 200.42-4.2 201.02-7.15 201.3-8.7 201.57-10.25 201.67-12.6L201.67-12.6Q199.62-11.6 196.62-8.3 193.62-5 192.65-3.15 191.67-1.3 191.4-0.13 191.12 1.05 190.7 1.05 190.27 1.05 190.27 0.4L190.27 0.4ZM193.37-13.7L193.82-15.35Q193.57-15.15 192.87-14.85L192.87-14.85 193.37-13.7ZM221.57-18.8L221.57-18.8Q222.17-18.65 222.17-17.82 222.17-17 220.89-14.9 219.62-12.8 218.92-12.3L218.92-12.3Q217.97-10.35 217.24-7.43 216.52-4.5 216.52-2.25 216.52 0 217.82 0L217.82 0Q219.37 0 221.47-2.7L221.47-2.7Q222.17-3.5 224.17-6.75L224.17-6.75Q224.37-7.05 224.52-7.05 224.67-7.05 224.67-6.9L224.67-6.9 224.57-6.6Q220.72 0.85 217.37 0.85L217.37 0.85Q214.47 0.85 214.47-3.35L214.47-3.35Q214.47-5.4 215.37-9.45L215.37-9.45Q213.47-5.8 212.02-3.7L212.02-3.7Q209.32 0 207.02 0 204.72 0 204.72-3.1L204.72-3.1Q204.72-7.85 209.77-13.2 214.82-18.55 219.67-19.1L219.67-19.1Q223.32-28.05 225.92-33.1L225.92-33.1Q226.77-34.25 228.62-34.25L228.62-34.25Q229.32-34.25 229.32-33.9L229.32-33.9Q225.42-26.55 221.57-18.8ZM205.97-4.05L205.97-4.05Q205.97-1.85 207.32-1.85L207.32-1.85Q210.97-1.85 214.47-10L214.47-10Q213.47-9.7 213.09-9.7 212.72-9.7 212.72-9.93 212.72-10.15 213.39-10.38 214.07-10.6 215.07-11.3L215.07-11.3Q215.52-12.5 215.79-13.35 216.07-14.2 216.27-14.2L216.27-14.2Q216.62-14.2 216.62-13.75 216.62-13.3 216.17-12.1L216.17-12.1 217.07-12.75 219.17-17.95Q215.37-17.1 210.67-12.4 205.97-7.7 205.97-4.05ZM233.17-6.85L233.17-6.85Q233.27-6.85 233.27-6.75L233.27-6.75Q233.27-5.9 230.52-3L230.52-3Q228.32-0.8 227.17-0.8L227.17-0.8Q224.62-0.8 224.62-3.35L224.62-3.35Q224.62-5.25 225.62-8.15L225.62-8.15 224.72-6.75Q224.07-5.65 223.82-5.65L223.82-5.65Q223.72-5.65 223.72-5.93 223.72-6.2 224.47-7.2 225.22-8.2 226.67-11.3L226.67-11.3Q227.07-12.35 227.77-13.65L227.77-13.65Q228.02-14.1 228.94-14.1 229.87-14.1 229.87-13.6 229.87-13.1 229.37-12.1 228.87-11.1 228.52-10.95L228.52-10.95Q225.92-5.75 225.92-3.3L225.92-3.3Q225.92-1.65 227.02-1.65L227.02-1.65Q228.82-1.65 230.97-4.25L230.97-4.25Q231.87-5.3 232.07-5.53 232.27-5.75 232.47-6 232.67-6.25 232.82-6.4L232.82-6.4Q233.07-6.65 233.17-6.85ZM231.62-20.45Q232.72-20.95 232.97-20.95 233.22-20.95 233.22-20.83 233.22-20.7 232.07-19.4L232.07-19.4 231.32-17.85Q230.87-16.85 230.17-16.85L230.17-16.85Q229.17-16.85 229.17-17.9L229.17-17.9Q229.17-18.4 229.84-19.18 230.52-19.95 231.62-20.45ZM231.91 0.4L231.91 0.3 234.71-12.35Q234.51-13.05 233.61-15.05L233.61-15.05Q233.61-15.4 234.46-15.7L234.46-15.7Q236.96-16.65 237.69-16.65 238.41-16.65 238.41-16.2L238.41-16.2Q236.56-11.6 235.86-9.8L235.86-9.8Q235.86-9.65 235.86-9.5L235.86-9.5Q235.86-7.95 235.41-7.95L235.41-7.95Q235.31-7.95 235.26-8.1L235.26-8.1Q234.21-4.95 233.81-3.5L233.81-3.5Q236.11-7.25 238.51-10.05L238.51-10.05Q242.26-14.4 244.71-14.4L244.71-14.4Q245.86-14.4 245.86-13.5L245.86-13.5Q245.86-13.15 242.96-2.5L242.96-2.5Q245.86-4.65 247.46-7.1L247.46-7.1Q247.71-7.4 247.84-7.4 247.96-7.4 247.96-7.25 247.96-7.1 247.81-6.85L247.81-6.85Q245.61-2.95 242.46-0.65L242.46-0.65Q242.21-0.35 241.84-0.35 241.46-0.35 241.46-0.8 241.46-1.25 242.06-4.2 242.66-7.15 242.94-8.7 243.21-10.25 243.31-12.6L243.31-12.6Q241.26-11.6 238.26-8.3 235.26-5 234.29-3.15 233.31-1.3 233.04-0.13 232.76 1.05 232.34 1.05 231.91 1.05 231.91 0.4L231.91 0.4ZM235.01-13.7L235.46-15.35Q235.21-15.15 234.51-14.85L234.51-14.85 235.01-13.7ZM264.06 2.7L264.06 2.7Q264.06 3.05 263.19 3.05 262.31 3.05 260.56 2.88 258.81 2.7 257.56 2.7L257.56 2.7Q259.26 6.1 259.26 8.6L259.26 8.6Q259.26 14.35 251.76 18.7L251.76 18.7Q245.26 22.5 238.91 22.5L238.91 22.5Q229.66 22.5 229.66 16.95L229.66 16.95Q229.66 16.05 229.76 15.6L229.76 15.6Q230.06 13.8 232.46 11L232.46 11Q239.96 2.25 255.11 1.85L255.11 1.85 253.46-2.3Q251.01-0.2 249.01-0.2L249.01-0.2Q247.21-0.2 247.21-2.15L247.21-2.15Q247.21-5.8 251.31-10.25L251.31-10.25Q251.21-11.45 251.21-11.95L251.21-11.95Q251.21-15 252.36-17.2L252.36-17.2Q253.81-20 256.56-20L256.56-20Q256.96-20 257.66-19.9L257.66-19.9Q258.81-19.65 259.34-18.25 259.86-16.85 259.86-16.23 259.86-15.6 259.81-15.35L259.81-15.35Q262.81-17.15 262.81-19.7L262.81-19.7Q262.81-20.6 263.01-20.6L263.01-20.6Q263.51-20.6 263.51-18.85L263.51-18.85Q263.51-15.5 259.71-13.7L259.71-13.7Q259.41-11.1 257.81-7.88 256.21-4.65 254.36-3.15L254.36-3.15Q255.21-1.7 257.11 1.85L257.11 1.85Q264.06 2 264.06 2.7ZM256.86 7.75L256.86 7.75Q256.86 6.2 255.46 2.75L255.46 2.75Q247.71 3.1 241.71 5.65L241.71 5.65Q234.11 8.9 231.86 14.85L231.86 14.85Q231.51 15.7 231.51 16.55L231.51 16.55Q231.51 19 233.86 20.38 236.21 21.75 238.86 21.75L238.86 21.75Q244.26 21.75 250.56 17.25 256.86 12.75 256.86 7.75ZM257.81-16.05L257.81-16.05Q257.81-19 256.41-19L256.41-19Q255.21-19 254.11-17.35L254.11-17.35Q252.01-14.3 252.01-11.35L252.01-11.35Q252.01-10.95 252.06-10.8L252.06-10.8Q253.16-11.9 254.76-12.8L254.76-12.8 257.71-14.5Q257.81-15.6 257.81-16.05ZM257.56-13.05L257.56-13.05Q253.91-11.35 252.11-9.7L252.11-9.7Q252.46-7.25 253.96-4L253.96-4Q255.26-5.2 256.41-8.15 257.56-11.1 257.56-13.05ZM251.41-8.9L251.41-8.9Q248.61-5.2 248.61-3.55 248.61-1.9 249.56-1.9L249.56-1.9Q251.41-1.9 253.11-3.25L253.11-3.25Q251.61-6.9 251.41-8.9ZM272.31 0.4L272.31 0.3 275.11-12.35Q274.91-13.05 274.01-15.05L274.01-15.05Q274.01-15.4 274.86-15.7L274.86-15.7Q277.36-16.65 278.08-16.65 278.81-16.65 278.81-16.2L278.81-16.2Q276.96-11.6 276.26-9.8L276.26-9.8Q276.26-9.65 276.26-9.5L276.26-9.5Q276.26-7.95 275.81-7.95L275.81-7.95Q275.71-7.95 275.66-8.1L275.66-8.1Q274.61-4.95 274.21-3.5L274.21-3.5Q276.51-7.25 278.91-10.05L278.91-10.05Q282.66-14.4 285.11-14.4L285.11-14.4Q286.26-14.4 286.26-13.5L286.26-13.5Q286.26-13.15 283.36-2.5L283.36-2.5Q286.26-4.65 287.86-7.1L287.86-7.1Q288.11-7.4 288.23-7.4 288.36-7.4 288.36-7.25 288.36-7.1 288.21-6.85L288.21-6.85Q286.01-2.95 282.86-0.65L282.86-0.65Q282.61-0.35 282.23-0.35 281.86-0.35 281.86-0.8 281.86-1.25 282.46-4.2 283.06-7.15 283.33-8.7 283.61-10.25 283.71-12.6L283.71-12.6Q281.66-11.6 278.66-8.3 275.66-5 274.68-3.15 273.71-1.3 273.43-0.13 273.16 1.05 272.73 1.05 272.31 1.05 272.31 0.4L272.31 0.4ZM275.41-13.7L275.86-15.35Q275.61-15.15 274.91-14.85L274.91-14.85 275.41-13.7ZM302.6-6.8L302.6-6.8Q302.65-6.8 302.65-6.65 302.65-6.5 302.25-5.8L302.25-5.8Q300.7-3.3 297.75-1.18 294.8 0.95 292.2 0.95L292.2 0.95Q288.65 0.95 288.65-3.65L288.65-3.65Q288.65-5.2 289-6.95L289-6.95Q288.55-7.35 288.2-8.05L288.2-8.05Q288.25-8 288.45-7.93 288.65-7.85 288.83-7.78 289-7.7 289.2-7.65L289.2-7.65Q289.7-10.1 292.25-12.7 294.8-15.3 297.2-15.3L297.2-15.3Q297.75-15.3 297.75-15.18 297.75-15.05 297.05-14.65L297.05-14.65Q295.2-13.65 293.6-11.55L293.6-11.55Q291.9-9.45 291.15-7.35L291.15-7.35 291.25-7.25Q293.65-7.25 296.25-9.55 298.85-11.85 298.85-14.25L298.85-14.25Q298.85-14.95 298.48-15.58 298.1-16.2 297.25-16.2 296.4-16.2 295.13-15.43 293.85-14.65 293.73-14.65 293.6-14.65 293.6-14.7L293.6-14.7Q293.6-15.3 295.23-15.95 296.85-16.6 297.88-16.6 298.9-16.6 299.65-15.95 300.4-15.3 300.4-14.15L300.4-14.15Q300.4-11.5 297.13-9.15 293.85-6.8 290.95-6.55L290.95-6.55Q290.55-5.35 290.55-4.25L290.55-4.25Q290.55-0.1 293.55-0.1L293.55-0.1Q295.85-0.1 298.15-1.93 300.45-3.75 301.85-6.1L301.85-6.1Q302.3-6.8 302.6-6.8ZM321.3-9.2L321.3-9.2Q321.5-7.55 321.93-7.08 322.35-6.6 322.35-6.38 322.35-6.15 322.2-6.15L322.2-6.15Q321.75-6.15 320.55-8.45L320.55-8.45Q319.85-6 318.75-4.15L318.75-4.15Q317.15-1.5 315.43-1.5 313.7-1.5 312.8-2.63 311.9-3.75 311.9-5.03 311.9-6.3 312.05-7.1L312.05-7.1Q310.2-4.65 308.2-2.7L308.2-2.7Q305.15 0.3 303.6 0.3L303.6 0.3Q302.15 0.3 302.15-1.6L302.15-1.6Q302.15-4.7 304.9-9.45L304.9-9.45Q304.65-9.2 303.65-7.78 302.65-6.35 302.53-6.35 302.4-6.35 302.4-6.5L302.4-6.5Q302.4-7.1 304.65-9.8L304.65-9.8Q306.95-12.5 307.83-13.15 308.7-13.8 309.38-13.8 310.05-13.8 310.05-13.5L310.05-13.5Q310.05-13.35 309.85-13.2L309.85-13.2Q308.4-11.65 305.9-7.33 303.4-3 303.4-1.45L303.4-1.45Q303.4-0.85 303.8-0.85L303.8-0.85Q306.95-0.85 312.35-9.1L312.35-9.1Q312.45-9.2 312.95-10.08 313.45-10.95 313.75-11.43 314.05-11.9 315.03-11.9 316-11.9 316-11.15L316-11.15Q314.1-8.2 314.1-4.9L314.1-4.9Q314.1-2.5 315.35-2.5 316.6-2.5 318.35-5.2L318.35-5.2Q319.7-7.45 320.2-9.05L320.2-9.05Q318.95-13.1 318.95-13.55L318.95-13.55Q318.95-14.4 319.7-14.4L319.7-14.4Q320.55-14.4 321.18-13.33 321.8-12.25 321.8-11.25 321.8-10.25 321.3-9.2ZM336.9-7.45Q337.05-7.45 337.05-7.25 337.05-7.05 336.95-6.9L336.95-6.9Q335.25-4.05 332.75-3.55L332.75-3.55Q332.6-1.8 331.67-0.6 330.75 0.6 328.67 0.6 326.6 0.6 324.75-1.38 322.9-3.35 322.9-5.7L322.9-5.7Q322.9-7.25 323.7-7.25L323.7-7.25Q324.2-7.25 324.7-6.5L324.7-6.5Q326.2-10 328.95-14.4L328.95-14.4Q330.7-17.1 333.05-17.1L333.05-17.1Q333.55-17.1 334.22-16.73 334.9-16.35 334.9-15.9L334.9-15.9Q334.9-15.55 334.47-15.55 334.05-15.55 333.85-15.6L333.85-15.6 333.45-15.6Q332.3-15.6 331.47-14.93 330.65-14.25 330.65-13.53 330.65-12.8 330.8-12.35L330.8-12.35 332-8.35Q332.7-5.85 332.7-4.25L332.7-4.25Q334.05-4.45 334.82-5.1 335.6-5.75 336.6-7.25L336.6-7.25Q336.75-7.45 336.9-7.45ZM330.65-3.6L330.65-3.6Q330.7-3.85 330.7-4.65 330.7-5.45 329.97-8.4 329.25-11.35 329.25-12.1 329.25-12.85 329.3-13.05L329.3-13.05Q328-11.7 325.05-5.85L325.05-5.85Q327.15-4.65 328.2-4.17 329.25-3.7 330.65-3.6ZM327.95-1.05L327.95-1.05Q329.9-1.05 330.6-3L330.6-3Q326.6-3 324.5-4.65L324.5-4.65Q324.6-3.5 325.7-2.27 326.8-1.05 327.95-1.05Z" opacity="1" transform="matrix(1,0,0,1,0,0)" fill="#ffffff" class="slogan-text-1" data-fill-palette-color="secondary" id="text-1"></path></svg></g></svg></g></svg></g></svg></g><g></g></svg></g></svg></g></svg></g><g><path d="M106.165 42.686A122.216 122.216 0 0 1 289.355 42.686L282.938 42.686A115.798 115.798 0 0 0 112.582 42.686L106.165 42.686M106.165 204.514A122.216 122.216 0 0 0 289.355 204.514L282.938 204.514A115.798 115.798 0 0 1 112.582 204.514L106.165 204.514" fill="#fffdd0" stroke="transparent" data-fill-palette-color="tertiary"></path></g></svg></g><defs></defs></svg><rect width="395.52" height="247.2" fill="none" stroke="none" visibility="hidden"></rect></g></svg></g></svg>